<svg id="Layer_1" data-name="Layer 1" xmlns="http://www.w3.org/2000/svg" xmlns:xlink="http://www.w3.org/1999/xlink" viewBox="0 0 2000 1500"><defs><style>.cls-1{fill:none;}.cls-2{clip-path:url(#clip-path);}.cls-14,.cls-3,.cls-7{stroke:#f1f2f2;stroke-miterlimit:10;}.cls-3{fill:url(#radial-gradient);}.cls-4{fill:#eaebeb;}.cls-5{fill:#cec9ca;}.cls-6{fill:#fff;}.cls-7{fill:#d9d8de;opacity:0.25;}.cls-8{fill:#ed1c24;}.cls-9{clip-path:url(#clip-path-2);}.cls-10,.cls-14,.cls-34{fill:#231f20;}.cls-11{clip-path:url(#clip-path-3);}.cls-12{clip-path:url(#clip-path-4);}.cls-13{fill:#eaebec;}.cls-14{opacity:0.1;}.cls-15{clip-path:url(#clip-path-5);}.cls-16{fill:#f0d0b4;}.cls-17{fill:#ecc19c;}.cls-18{fill:#f5e0cd;}.cls-19{fill:#cf9e76;}.cls-20{clip-path:url(#clip-path-6);}.cls-21{fill:#f06ea9;}.cls-22{fill:#f178ae;}.cls-23{fill:#f38ab8;}.cls-24{clip-path:url(#clip-path-7);}.cls-25{clip-path:url(#clip-path-8);}.cls-26{clip-path:url(#clip-path-9);}.cls-27{clip-path:url(#clip-path-10);}.cls-28{clip-path:url(#clip-path-11);}.cls-29{clip-path:url(#clip-path-12);}.cls-30{clip-path:url(#clip-path-13);}.cls-31{clip-path:url(#clip-path-14);}.cls-32{clip-path:url(#clip-path-15);}.cls-33{clip-path:url(#clip-path-16);}.cls-34{opacity:0.72;}</style><clipPath id="clip-path"><rect class="cls-1" width="2000" height="1500"/></clipPath><radialGradient id="radial-gradient" cx="1000" cy="750" r="883.88" gradientUnits="userSpaceOnUse"><stop offset="0" stop-color="#fff"/><stop offset="1" stop-color="#bcbec0"/></radialGradient><clipPath id="clip-path-2"><path class="cls-1" d="M1009.2,916.07c201.71,0,365.23-160.95,365.23-359.48S1210.91,197.11,1009.2,197.11,644,358.05,644,556.59,807.49,916.07,1009.2,916.07Zm-1.25-695c183.07,0,331.48,147,331.48,328.44S1191,878,1007.95,878s-331.48-147-331.48-328.43S824.87,221.11,1007.95,221.11Z"/></clipPath><clipPath id="clip-path-3"><path class="cls-1" d="M1009.2,916.07c201.71,0,365.23-160.95,365.23-359.48S1210.91,197.11,1009.2,197.11,644,358.05,644,556.59,807.49,916.07,1009.2,916.07Zm-2.76-677.51c174,0,315,139.23,315,311s-141,311-315,311-315-139.23-315-311S832.47,238.56,1006.44,238.56Z"/></clipPath><clipPath id="clip-path-4"><circle class="cls-1" cx="1008.38" cy="557.98" r="76.5"/></clipPath><clipPath id="clip-path-5"><path class="cls-1" d="M812.46,1499,781,1415s-82.5-271.49-91.5-322.48-15-144-69-219c0,0-40.5-69-39-115.49s-75-174-150-163.49c0,0-100.49,30-67.5,99,0,0-12-37.5-48-39,0,0-66,22.5-45,67.5s34.5,79.5,34.5,79.5-22.5-63.32-63-69.16c0,0-79.5,7.66-36,94.65,0,0-58.5,13.5-52.5,49.5s15,82.5,15,82.5-42-22.5-45,25.5c0,0-9,52.5,40.5,136.49,0,0,4.5,61.5,54,183s90,214.49,90,214.49H406L820,1502Z"/></clipPath><clipPath id="clip-path-6"><path class="cls-1" d="M488.2,672s5.33,29.33-30.67,43.33-62,.67-69.33-13.33-20.67-36-20.67-36-8-9.33,8.67-19.33S439.54,616,439.54,616s18-6,26,8S488.2,672,488.2,672Z"/></clipPath><clipPath id="clip-path-7"><path class="cls-1" d="M341,692.08s1.39,16.68-19.48,22.55-34.68-3-38-11.21-9.6-21.24-9.6-21.24-4-5.65,5.89-10.33,37-13.7,37-13.7,10.38-2.38,14.1,5.88S341,692.08,341,692.08Z"/></clipPath><clipPath id="clip-path-8"><path class="cls-1" d="M264.72,766.67s1.1,16.65-17.82,22.71-31.32-2.66-34.26-10.85-8.48-21.13-8.48-21.13-3.53-5.61,5.42-10.38,33.62-14,33.62-14,9.41-2.47,12.69,5.74S264.72,766.67,264.72,766.67Z"/></clipPath><clipPath id="clip-path-9"><path class="cls-1" d="M220.79,856.54s1,14.43-15.45,19.68-27.14-2.31-29.69-9.4-7.35-18.31-7.35-18.31-3.06-4.86,4.7-9,29.14-12.17,29.14-12.17,8.15-2.14,11,5S220.79,856.54,220.79,856.54Z"/></clipPath><clipPath id="clip-path-10"><path class="cls-1" d="M158.32,991s-.59,14.87-12.76,20.15-19.18-2.59-20.37-9.92-3.63-18.91-3.63-18.91-1.76-5,4.14-9.23,21.87-12.3,21.87-12.3,6-2.14,7.41,5.21S158.32,991,158.32,991Z"/></clipPath><clipPath id="clip-path-11"><path class="cls-1" d="M1180.81,1499l31.5-84s82.5-271.49,91.5-322.48,15-144,69-219c0,0,40.5-69,39-115.49s75-174,150-163.49c0,0,100.49,30,67.5,99,0,0,12-37.5,48-39,0,0,66,22.5,45,67.5s-34.5,79.5-34.5,79.5,22.5-63.32,63-69.16c0,0,79.5,7.66,36,94.65,0,0,58.5,13.5,52.5,49.5s-15,82.5-15,82.5,42-22.5,45,25.5c0,0,9,52.5-40.5,136.49,0,0-4.5,61.5-54,183s-90,214.49-90,214.49h-97.5l-414-16.5Z"/></clipPath><clipPath id="clip-path-12"><path class="cls-1" d="M1505.07,672s-5.33,29.33,30.67,43.33,62,.67,69.33-13.33,20.67-36,20.67-36,8-9.33-8.67-19.33S1553.73,616,1553.73,616s-18-6-26,8S1505.07,672,1505.07,672Z"/></clipPath><clipPath id="clip-path-13"><path class="cls-1" d="M1652.23,692.08s-1.39,16.68,19.48,22.55,34.68-3,38-11.21,9.6-21.24,9.6-21.24,4-5.65-5.89-10.33-37-13.7-37-13.7-10.38-2.38-14.1,5.88S1652.23,692.08,1652.23,692.08Z"/></clipPath><clipPath id="clip-path-14"><path class="cls-1" d="M1728.54,766.67s-1.1,16.65,17.82,22.71,31.32-2.66,34.26-10.85,8.48-21.13,8.48-21.13,3.53-5.61-5.42-10.38-33.62-14-33.62-14-9.41-2.47-12.69,5.74S1728.54,766.67,1728.54,766.67Z"/></clipPath><clipPath id="clip-path-15"><path class="cls-1" d="M1772.48,856.54s-1,14.43,15.45,19.68,27.14-2.31,29.69-9.4,7.35-18.31,7.35-18.31,3.06-4.86-4.7-9-29.14-12.17-29.14-12.17-8.15-2.14-11,5S1772.48,856.54,1772.48,856.54Z"/></clipPath><clipPath id="clip-path-16"><path class="cls-1" d="M1834.95,991s.59,14.87,12.76,20.15,19.18-2.59,20.37-9.92,3.63-18.91,3.63-18.91,1.76-5-4.14-9.23-21.87-12.3-21.87-12.3-6-2.14-7.41,5.21S1834.95,991,1834.95,991Z"/></clipPath></defs><title>bgd</title><g class="cls-2"><rect class="cls-3" width="2000" height="1500"/><path class="cls-4" d="M1853.45,530.73S1846.8,494,1789.79,474c-47.32-16.6-239.44-29.14-312.76-118.11A499.44,499.44,0,0,0,1449.19,291v0h0c-82.5-160.13-248.3-269.5-439.4-269.5-210.49,0-390.28,132.68-461.87,319.74C515,380.26,433.82,430.43,234.11,446.48c-38.2,3.07-57.89,32-75.79,133.25C131,734.06,54.85,1096,139.82,1530L1872,1500S1926.13,1021.46,1853.45,530.73Z"/><path class="cls-5" d="M1853.45,565.73S1846.8,529,1789.79,509c-47.32-16.6-239.44-29.14-312.76-118.11A499.44,499.44,0,0,0,1449.19,326v0h0c-82.5-160.13-248.3-269.5-439.4-269.5-210.49,0-390.28,132.68-461.87,319.74C515,415.26,433.82,465.43,234.11,481.48c-38.2,3.07-57.89,32-75.79,133.25C131,769.06,54.85,1131,139.82,1565L1872,1535S1926.13,1056.46,1853.45,565.73Z"/><ellipse class="cls-4" cx="1010.78" cy="554" rx="482" ry="479"/><ellipse class="cls-5" cx="1008.69" cy="565.73" rx="383.91" ry="385.73"/><ellipse class="cls-6" cx="1009.2" cy="556.59" rx="365.23" ry="359.48"/><circle class="cls-7" cx="1008.38" cy="519.98" r="76.5"/><polygon class="cls-7" points="1012.57 517.2 1293.98 403.2 1022.78 535.45 994.78 517.62 1012.57 517.2"/><polygon class="cls-8" points="1012.57 511.2 1293.98 397.2 1022.78 529.45 994.78 511.62 1012.57 511.2"/><path class="cls-4" d="M1009.2,916.07c201.71,0,365.23-160.95,365.23-359.48S1210.91,197.11,1009.2,197.11,644,358.05,644,556.59,807.49,916.07,1009.2,916.07Zm-1.25-708.46c190.53,0,345,153.11,345,342s-154.45,342-345,342-345-153.11-345-342S817.42,207.61,1007.95,207.61Z"/><g class="cls-9"><polygon class="cls-10" points="625.53 549.56 996.97 552.45 630.36 629.83 630.77 631.79 1002.02 553.42 1002.84 553.59 998.82 557.99 647.1 707.93 647.89 709.77 991.64 563.22 700.77 768.96 701.93 770.59 992.05 565.38 746.38 833.8 747.85 835.15 999.74 559.94 1000.36 559.5 1004.82 557.6 811.32 887 813.04 888.01 1004.71 561.73 885.23 926.87 887.13 927.49 1006.65 562.25 1007.02 565.63 968.82 928.19 970.8 928.4 1008.04 574.99 1047.63 936.71 1049.61 936.49 1009.03 565.62 1009.84 557.9 1130.45 923.01 1132.35 922.38 1013.65 563.07 1209.18 893.78 1210.9 892.77 1014.06 559.82 1264.87 834.83 1266.34 833.48 1015.43 558.36 1338.56 792.47 1339.73 790.85 1017.63 557.48 1368.68 712.03 1369.49 710.2 1023.08 557.7 1382.88 630.7 1383.28 628.73 1014.48 553.91 1013.99 553.69 1016.55 552.6 1388.37 555.49 1388.39 553.49 1021.16 550.64 1026.96 548.16 1406.89 467.97 1406.47 466.01 1036.46 544.11 1369.79 402.01 1369.01 400.17 1026.36 546.24 1016.02 548.43 1319.1 334.04 1317.95 332.41 1012.51 548.46 1016.56 541.57 1262.9 272.41 1261.43 271.06 1021.41 533.3 1214.81 204.08 1213.09 203.06 1014.94 540.37 1013.17 542.3 1131.19 181.64 1129.29 181.02 1011.68 540.43 1050.02 176.6 1048.03 176.39 1008.99 546.87 1008.49 547.42 1006.32 540.87 966.63 178.16 964.64 178.37 1003.31 531.76 883.54 169.2 881.64 169.83 1004.35 541.29 1004.64 543.89 811.51 217.23 809.79 218.25 1002.46 544.14 746.2 263.15 744.73 264.5 1000.81 545.3 697.39 325.46 696.22 327.08 1001.26 548.09 651.25 394 650.44 395.83 1001.74 550.49 997.43 550.45 642.41 478.42 642.02 480.38 986.97 550.37 625.55 547.56 625.53 549.56"/></g><g class="cls-11"><polygon class="cls-10" points="636.61 515.99 636.13 520.97 971.05 552.95 626.79 586.51 627.28 591.49 983.19 556.79 639.88 667.89 641.42 672.65 999.14 556.88 998.23 558.11 664.45 743.92 666.88 748.29 981.1 573.37 723.96 799.18 727.26 802.93 983.79 577.66 775.89 859.12 779.91 862.09 1001.48 562.13 1001.8 561.85 1001.92 561.78 845.88 905.49 850.44 907.55 1001.11 575.65 923.46 937.7 928.35 938.75 1006.7 573.46 1006.7 930.57 1011.7 930.57 1011.7 589.17 1086 931.1 1090.89 930.04 1011.7 565.62 1011.7 564.99 1167.03 909.1 1171.59 907.04 1021.62 574.82 1242.43 872.07 1246.44 869.08 1024.47 570.27 1291.84 807.83 1295.16 804.09 1027.73 566.49 1360.94 758.16 1363.43 753.82 1030.85 562.51 1382.76 675.13 1384.28 670.37 1037.06 559.25 1388.67 592.82 1389.15 587.84 1023.11 552.89 1386.54 517.46 1386.05 512.48 1028.65 547.33 1396.1 428.41 1394.56 423.65 1049.36 535.37 1352.56 366.58 1350.13 362.21 1024.8 543.32 1021.79 544.29 1295.29 304.12 1291.99 300.36 1016.11 542.63 1016.47 541.84 1233.16 248.48 1229.14 245.51 1026.38 520.01 1178.33 185.29 1173.78 183.22 1015.73 531.38 1092.92 171.43 1088.03 170.38 1011.7 526.31 1011.7 174.61 1006.7 174.61 1006.7 541.76 1006.34 540.98 928.89 184.58 924.01 185.64 996.48 519.12 845.23 184.08 840.68 186.14 997.99 534.63 778.47 239.11 774.45 242.1 991.54 534.32 718.12 291.4 714.8 295.14 987.97 537.84 675.86 358.3 673.37 362.64 987.68 543.44 636.86 431.17 635.34 435.93 991.32 549.86 636.61 515.99"/></g><path class="cls-10" d="M1030.12,809.61c0,27.15-7.42,42.14-20.21,42.14-11.36,0-19.14-14.62-19.31-41,0-26.9,8.5-41.52,20.3-41.52C1023.06,769.19,1030.12,784.18,1030.12,809.61Zm-31.56,1.23c0,20.76,4.65,32.56,11.8,32.56,8,0,11.8-12.9,11.8-33.29,0-19.66-3.58-32.56-11.8-32.56C1003.57,777.54,998.56,789.09,998.56,810.83Z"/><path class="cls-10" d="M1114.75,768.7h-.1l-5.92,4.39-.89-4.83,7.44-5.47h3.93v46.8h-4.45Z"/><path class="cls-10" d="M1154.31,785.69c0,15.91-4.35,24.7-11.84,24.7-6.65,0-11.21-8.57-11.32-24,0-15.77,5-24.34,11.89-24.34C1150.17,762,1154.31,770.78,1154.31,785.69Zm-18.5.72c0,12.17,2.72,19.08,6.92,19.08,4.66,0,6.92-7.56,6.92-19.51,0-11.52-2.1-19.08-6.92-19.08C1138.75,766.9,1135.81,773.66,1135.81,786.41Z"/><path class="cls-10" d="M1184.74,750v-3.89l3.62-4.82c8.7-11.38,12.68-17.43,12.68-24.48,0-4.75-1.62-9.14-6.71-9.14-3.09,0-5.66,2.16-7.23,4l-1.47-4.46a13,13,0,0,1,9.59-4.75c7.34,0,10.43,6.91,10.43,13.61,0,8.64-4.56,15.63-11.74,25.13l-2.67,3.46v.14h15.25V750Z"/><path class="cls-10" d="M1234.31,726.09c0,15.91-4.35,24.7-11.84,24.7-6.65,0-11.21-8.57-11.32-24,0-15.77,5-24.34,11.89-24.34C1230.17,702.4,1234.31,711.19,1234.31,726.09Zm-18.5.72c0,12.17,2.72,19.08,6.92,19.08,4.66,0,6.92-7.56,6.92-19.51,0-11.52-2.1-19.08-6.92-19.08C1218.75,707.3,1215.81,714.07,1215.81,726.81Z"/><path class="cls-10" d="M1235.84,650.63a12.89,12.89,0,0,0,7.55,2.88c5.87,0,7.75-5.11,7.7-9.07-.05-6.55-4.35-9.36-8.8-9.36h-2.57v-4.75h2.57a7.53,7.53,0,0,0,7.6-7.92c0-3.74-1.73-7.06-6-7.06a10.51,10.51,0,0,0-6.81,3.1l-1.26-4.61a13.57,13.57,0,0,1,9-3.6c6.71,0,9.75,5.47,9.75,11.16,0,4.9-2.15,9-6.29,11.09v.14c4.19,1.08,7.54,5.4,7.6,12,0,7.49-4.3,14-12.42,14a14,14,0,0,1-8.85-3.17Z"/><path class="cls-10" d="M1284.31,633.92c0,15.91-4.35,24.7-11.84,24.7-6.65,0-11.21-8.57-11.32-24,0-15.77,5-24.34,11.89-24.34C1280.17,610.23,1284.31,619,1284.31,633.92Zm-18.5.72c0,12.17,2.72,19.08,6.92,19.08,4.66,0,6.92-7.56,6.92-19.51,0-11.52-2.1-19.08-6.92-19.08C1268.75,615.13,1265.81,621.9,1265.81,634.64Z"/><path class="cls-10" d="M1267,549.54V536.72h-15.82v-4.1l15.2-29.88h5v29.09h4.77v4.9h-4.77v12.82Zm0-17.71V516.2q0-3.67.16-7.34H1267c-1,2.74-1.89,4.75-2.83,6.91l-8.33,15.91v.14Z"/><path class="cls-10" d="M1302.31,525.63c0,15.91-4.35,24.7-11.84,24.7-6.65,0-11.21-8.57-11.32-24,0-15.77,5-24.34,11.89-24.34C1298.17,501.94,1302.31,510.73,1302.31,525.63Zm-18.5.72c0,12.17,2.72,19.08,6.92,19.08,4.66,0,6.92-7.56,6.92-19.51,0-11.52-2.1-19.08-6.92-19.08C1286.75,506.84,1283.81,513.61,1283.81,526.35Z"/><path class="cls-10" d="M1231.07,410.06h-13l-1.31,12a14.13,14.13,0,0,1,2.78-.22,11,11,0,0,1,7.34,2.52c2.67,2,4.87,6.12,4.87,12,0,9.14-5.29,16-12.68,16a13.45,13.45,0,0,1-8.49-2.88l1.15-4.83a12.28,12.28,0,0,0,7.34,2.59c4.3,0,8.07-3.89,8-10.15,0-6-3-10.3-9.75-10.3a26.9,26.9,0,0,0-4.77.43l2.2-22.47h16.3Z"/><path class="cls-10" d="M1260.31,427.63c0,15.91-4.35,24.7-11.84,24.7-6.65,0-11.21-8.57-11.32-24,0-15.77,5-24.34,11.89-24.34C1256.17,403.94,1260.31,412.73,1260.31,427.63Zm-18.5.72c0,12.17,2.72,19.08,6.92,19.08,4.66,0,6.92-7.56,6.92-19.51,0-11.52-2.1-19.08-6.92-19.08C1244.75,408.84,1241.81,415.61,1241.81,428.35Z"/><path class="cls-10" d="M1166.18,331.2a12.54,12.54,0,0,0-3.46.36c-7.28,1.58-11.06,8.78-11.84,16.56h.11c1.62-3,4.51-5.47,8.28-5.47,6,0,10.27,6,10.27,15.12,0,8.64-4.24,16.56-11.37,16.56s-12-7.78-12-19.95c0-9.22,2.36-16.49,5.76-21.1a17,17,0,0,1,10.9-6.91,16.25,16.25,0,0,1,3.35-.36Zm-1.31,27c0-6.7-2.78-10.73-7-10.73-2.78,0-5.4,2.3-6.66,5.76a7.74,7.74,0,0,0-.47,2.74c.05,7.7,2.67,13.46,7.55,13.46C1162.2,369.44,1164.87,364.9,1164.87,358.2Z"/><path class="cls-10" d="M1196.31,349.63c0,15.91-4.35,24.7-11.84,24.7-6.65,0-11.21-8.57-11.32-24,0-15.77,5-24.34,11.89-24.34C1192.17,325.94,1196.31,334.73,1196.31,349.63Zm-18.5.72c0,12.17,2.72,19.08,6.92,19.08,4.66,0,6.92-7.56,6.92-19.51,0-11.52-2.1-19.08-6.92-19.08C1180.75,330.84,1177.81,337.61,1177.81,350.35Z"/><path class="cls-10" d="M1072.85,279.14v4.18L1058,325.95h-4.77l14.78-41.4v-.14h-16.66v-5.26Z"/><path class="cls-10" d="M1100.31,302c0,15.91-4.35,24.7-11.84,24.7-6.65,0-11.21-8.57-11.32-24,0-15.77,5-24.34,11.89-24.34C1096.17,278.35,1100.31,287.14,1100.31,302Zm-18.5.72c0,12.17,2.72,19.08,6.92,19.08,4.66,0,6.92-7.56,6.92-19.51,0-11.52-2.1-19.08-6.92-19.08C1084.75,283.25,1081.81,290,1081.81,302.76Z"/><path class="cls-10" d="M861.83,771.1h-.1l-5.92,4.39-.89-4.83,7.44-5.47h3.93V812h-4.45Z"/><path class="cls-10" d="M893,812V799.19H877.13v-4.11l15.2-29.88h5v29.09h4.77v4.9h-4.77V812Zm0-17.71V778.66q0-3.67.16-7.35H893c-1,2.74-1.89,4.75-2.83,6.91l-8.33,15.91v.14Z"/><path class="cls-10" d="M928.28,788.1c0,15.91-4.35,24.7-11.84,24.7-6.65,0-11.21-8.57-11.32-24.05,0-15.77,5-24.34,11.89-24.34C924.14,764.41,928.28,773.19,928.28,788.1Zm-18.5.72c0,12.17,2.72,19.08,6.92,19.08,4.66,0,6.92-7.56,6.92-19.51,0-11.52-2.1-19.08-6.92-19.08C912.72,769.3,909.78,776.07,909.78,788.82Z"/><path class="cls-10" d="M781.83,711.51h-.1l-5.92,4.39-.89-4.83,7.44-5.47h3.93v46.8h-4.45Z"/><path class="cls-10" d="M799.81,745.21a12.89,12.89,0,0,0,7.55,2.88c5.87,0,7.75-5.11,7.7-9.07-.05-6.55-4.35-9.36-8.8-9.36h-2.57V724.9h2.57a7.53,7.53,0,0,0,7.6-7.92c0-3.74-1.73-7.06-6-7.06a10.51,10.51,0,0,0-6.81,3.1l-1.26-4.61a13.57,13.57,0,0,1,9-3.6c6.71,0,9.75,5.47,9.75,11.16,0,4.9-2.15,9-6.29,11.09v.14c4.19,1.08,7.54,5.4,7.6,12,0,7.49-4.3,14-12.42,14a14,14,0,0,1-8.85-3.17Z"/><path class="cls-10" d="M848.28,728.5c0,15.91-4.35,24.7-11.84,24.7-6.65,0-11.21-8.57-11.32-24,0-15.77,5-24.34,11.89-24.34C844.14,704.81,848.28,713.6,848.28,728.5Zm-18.5.72c0,12.17,2.72,19.08,6.92,19.08,4.66,0,6.92-7.56,6.92-19.51,0-11.52-2.1-19.08-6.92-19.08C832.72,709.71,829.78,716.48,829.78,729.22Z"/><path class="cls-10" d="M731.83,619.34h-.1l-5.92,4.39-.89-4.83,7.44-5.47h3.93v46.8h-4.45Z"/><path class="cls-10" d="M748.71,660.24v-3.89l3.62-4.82C761,640.15,765,634.1,765,627c0-4.75-1.62-9.14-6.71-9.14-3.09,0-5.66,2.16-7.23,4l-1.47-4.46a13,13,0,0,1,9.59-4.75c7.34,0,10.43,6.91,10.43,13.61,0,8.64-4.56,15.63-11.74,25.13l-2.67,3.46V655h15.25v5.26Z"/><path class="cls-10" d="M798.28,636.33c0,15.91-4.35,24.7-11.84,24.7-6.65,0-11.21-8.57-11.32-24,0-15.77,5-24.34,11.89-24.34C794.14,612.64,798.28,621.43,798.28,636.33Zm-18.5.72c0,12.17,2.72,19.08,6.92,19.08,4.66,0,6.92-7.56,6.92-19.51,0-11.52-2.1-19.08-6.92-19.08C782.72,617.54,779.78,624.31,779.78,637.05Z"/><path class="cls-10" d="M713.83,511h-.1l-5.92,4.39-.89-4.83,7.44-5.47h3.93v46.8h-4.45Z"/><path class="cls-10" d="M740.71,511h-.1l-5.92,4.39-.89-4.83,7.44-5.47h3.93v46.8h-4.45Z"/><path class="cls-10" d="M780.28,528c0,15.91-4.35,24.7-11.84,24.7-6.65,0-11.21-8.57-11.32-24,0-15.77,5-24.34,11.89-24.34C776.14,504.35,780.28,513.14,780.28,528Zm-18.5.72c0,12.17,2.72,19.08,6.92,19.08,4.66,0,6.92-7.56,6.92-19.51,0-11.52-2.1-19.08-6.92-19.08C764.72,509.25,761.78,516,761.78,528.76Z"/><path class="cls-10" d="M755.83,413h-.1l-5.92,4.39-.89-4.83,7.44-5.47h3.93v46.8h-4.45Z"/><path class="cls-10" d="M795.4,430c0,15.91-4.35,24.7-11.84,24.7-6.65,0-11.21-8.57-11.32-24,0-15.77,5-24.34,11.89-24.34C791.26,406.35,795.4,415.14,795.4,430Zm-18.5.72c0,12.17,2.72,19.08,6.92,19.08,4.66,0,6.92-7.56,6.92-19.51,0-11.52-2.1-19.08-6.92-19.08C779.83,411.25,776.9,418,776.9,430.76Z"/><path class="cls-10" d="M822.28,430c0,15.91-4.35,24.7-11.84,24.7-6.65,0-11.21-8.57-11.32-24,0-15.77,5-24.34,11.89-24.34C818.14,406.35,822.28,415.14,822.28,430Zm-18.5.72c0,12.17,2.72,19.08,6.92,19.08,4.66,0,6.92-7.56,6.92-19.51,0-11.52-2.1-19.08-6.92-19.08C806.72,411.25,803.78,418,803.78,430.76Z"/><path class="cls-10" d="M812.5,371.48a14,14,0,0,0,3.72-.22,11.42,11.42,0,0,0,7.13-4.54c2.25-2.81,3.88-6.91,4.51-12.38h-.16c-1.89,3.17-4.61,5-8.07,5-6.08,0-10-6.34-10-14.33,0-8.86,4.66-16.63,11.63-16.63s11.27,7.7,11.27,19.8c0,10.22-2.52,17.42-5.87,21.89a15.53,15.53,0,0,1-9.9,6.26,15.74,15.74,0,0,1-4.24.36Zm1.68-26.86c0,5.83,2.57,9.94,6.55,9.94,3.09,0,5.5-2.09,6.71-4.9a5.81,5.81,0,0,0,.42-2.38c0-8-2.15-14.11-7-14.11C817,333.18,814.17,337.93,814.17,344.63Z"/><path class="cls-10" d="M859.4,352c0,15.91-4.35,24.7-11.84,24.7-6.65,0-11.21-8.57-11.32-24,0-15.77,5-24.34,11.89-24.34C855.26,328.35,859.4,337.14,859.4,352Zm-18.5.72c0,12.17,2.72,19.08,6.92,19.08,4.66,0,6.92-7.56,6.92-19.51,0-11.52-2.1-19.08-6.92-19.08C843.83,333.25,840.9,340,840.9,352.76Z"/><path class="cls-10" d="M912.11,301.32a12.1,12.1,0,0,1-5.45-10.51c0-7.42,4.56-12.46,10.58-12.46,6.6,0,10,5.62,10,11.52a12.5,12.5,0,0,1-5.66,10.95V301c4.25,2.3,6.86,6.48,6.86,12.1,0,8.21-5.08,13.61-11.58,13.61-7.13,0-11.42-5.76-11.42-12.6,0-5.91,2.57-10.15,6.76-12.6Zm11.63,12.46c0-5.62-2.88-8.42-7.49-10.22-4,1.58-6.13,5.26-6.13,9.72-.16,4.68,2.46,8.86,6.81,8.86C921.07,322.13,923.74,318.6,923.74,313.78Zm-12.68-23.4c-.05,4.68,2.57,7.2,6.5,8.64a9,9,0,0,0,5.19-8.5c0-3.74-1.62-7.63-5.76-7.63C913.16,282.89,911.06,286.34,911.06,290.38Z"/><path class="cls-10" d="M955.4,302c0,15.91-4.35,24.7-11.84,24.7-6.65,0-11.21-8.57-11.32-24,0-15.77,5-24.34,11.89-24.34C951.26,278.35,955.4,287.14,955.4,302Zm-18.5.72c0,12.17,2.72,19.08,6.92,19.08,4.66,0,6.92-7.56,6.92-19.51,0-11.52-2.1-19.08-6.92-19.08C939.83,283.25,936.9,290,936.9,302.76Z"/><g class="cls-12"><circle class="cls-13" cx="1008.38" cy="557.98" r="76.5"/><circle class="cls-5" cx="1009.15" cy="568.62" r="77.11"/></g><path class="cls-4" d="M1808.87,615s-6.32-34.92-60.44-53.93c-36.59-12.85-164.37-23.15-248.13-72.23a509.37,509.37,0,0,1,4.49,67.53c0,276.09-221.62,499.9-495,499.9s-495-223.81-495-499.9a508.11,508.11,0,0,1,6.82-83.16c-46,26.52-122.6,51.44-250.07,61.7-36.27,2.92-55,30.47-71.95,126.68C173.66,808.29,101.35,1152.39,182,1565l1644.43-28.52S1877.86,1081.52,1808.87,615Z"/><path class="cls-6" d="M668.78,325.95S665.14,199.21,820,197.11C820,197.11,698.78,238.9,668.78,325.95Z"/><path class="cls-6" d="M1176.09,185.09s121.19-37.26,164.45,111.41C1340.54,296.49,1268,190.82,1176.09,185.09Z"/><path class="cls-14" d="M843.46,1499,812,1415s-82.5-271.49-91.5-322.48-15-144-69-219c0,0-40.5-69-39-115.49s-75-174-150-163.49c0,0-100.49,30-67.5,99,0,0-12-37.5-48-39,0,0-66,22.5-45,67.5s34.5,79.5,34.5,79.5-22.5-63.32-63-69.16c0,0-79.5,7.66-36,94.65,0,0-58.5,13.5-52.5,49.5s15,82.5,15,82.5-42-22.5-45,25.5c0,0-9,52.5,40.5,136.49,0,0,4.5,61.5,54,183s90,214.49,90,214.49H437L851,1502Z"/><g class="cls-15"><path class="cls-16" d="M812.46,1499,781,1415s-82.5-271.49-91.5-322.48-15-144-69-219c0,0-40.5-69-39-115.49s-75-174-150-163.49c0,0-100.49,30-67.5,99,0,0-12-37.5-48-39,0,0-66,22.5-45,67.5s34.5,79.5,34.5,79.5-22.5-63.32-63-69.16c0,0-79.5,7.66-36,94.65,0,0-58.5,13.5-52.5,49.5s15,82.5,15,82.5-42-22.5-45,25.5c0,0-9,52.5,40.5,136.49,0,0,4.5,61.5,54,183s90,214.49,90,214.49H406L820,1502Z"/><path class="cls-17" d="M611,822.08s-2.89-5.6-7.6-15c-15.78-31.28-52.06-104.48-69.17-149.75L492.47,555.09l-117,66-14.14,63.54s36.94-82.48,114.31-45.54c0,0,36.32,61.5,27.32,85.5s-84,46.17-97.5,26.84c0,0-13.5,3.16-3,27.16s57,60,64.5,79.5,31.5,82.5,1.5,72-49.5-67.5-55.5-93c0,0,13.5,96,0,79.5s-31.5-87-25.5-103.5c0,0-28.5-6-39-3,0,0,24-15,36-13.5,0,0,1-43.18-36-22.5,0,0-39.66-28.82-44.58-22.66S245,703.59,245,696.09v7.5s103.5,142.49,117,213v60.24s-68-85.74-68.51-114.24-8-67.5-48.49-34.5c0,0-69-24.32-64.5-76.66l24.38,82.21S294,958.57,293.48,999.07s-51.49,24-48.49,0c0,0,3-64.49-42-84,0,0-54,60-39-75s-36.64,30-36.64,30l33.64,87s118.49,133.49,48,184.49c0,0-16.5,1.25-7.5-27.87S198.92,1012,167,1038.07s-69-20.83-69-20.83L66.5,751.42,110,613l60-65.38s67.5-136.49,67.5-132,159,36,159,36L644,531.09l-26.63,132v97.58Z"/><path class="cls-18" d="M838,1529s-114-156-151.49-340.48-79.5-270-79.5-270-34.5-190.49-16.5-220.49l-159-157.49-82.5,111-105-9,15,79.5s63,55.5,93,130.49c0,0,10.5,22.5-132-145.49l-90,72,65.51,18.78s75.48,74.22,95,86.22c0,0,24,90,37.5,109.49,0,0-121.75-162.16-127.11-178.94L145,869.07l18,58.21s78,67.79,85.5,120.29c0,0-8,24-102-105l-87,92.25s88.5,45.75,135,128.24S283,1406,352,1376c0,0-3-67.5,13.5-30s132,172.49,132,172.49L199,1529l-75.64-126L-35,1104.56l22.5-337.48L175,560.09l351-84,183,204-10.5,211.49,94.5,330L853,1349l-22.5,142.62,9,43.37Z"/><path class="cls-17" d="M602.47,1542.54s58.5-238.49-96-304.49c0,0-14.14,288-34.82,304.49L598,1535Z"/><path class="cls-17" d="M358,1311.55s-93.33-123.56-127.4-129.5a10.45,10.45,0,0,0-6.09.5C197.49,1194.56,334,1298.05,358,1311.55Z"/><path class="cls-17" d="M344.48,1151.06s-18.82-99.7-73.5-111S320.48,1073.06,344.48,1151.06Z"/><path class="cls-17" d="M589,956.07s-31.45,12-46.48-27S481,777.58,481,777.58,559,893.07,589,956.07Z"/><path class="cls-19" d="M347.54,640.67s15,67,99,187c0,0,19.84,25.78,5,42s-23-23-28-33-39-112-58-122c0,0-34-75-35-83s-99,25-99,25l43.22,80.83S348,840.67,344.29,866.67l-11.75,26s-58.18-154.23-89-167l-74,6.75,27.12,86.32S265.49,911.37,276,937.51c0,0-.48,57.16-17.48,16.16s-38.21-124.47-77-141L129.14,866l38.23,84.57s70.21,96,50.16,120.06c0,0-40.09-120.2-71-128.1l-107-78.9,18-291,226,21.31,78,6.69Z"/></g><g class="cls-20"><path class="cls-21" d="M488.2,672s5.33,29.33-30.67,43.33-62,.67-69.33-13.33-20.67-36-20.67-36-8-9.33,8.67-19.33S439.54,616,439.54,616s18-6,26,8S488.2,672,488.2,672Z"/><path class="cls-22" d="M422.87,724s-48-57.33-23.33-71.33,74-27.33,74-27.33l-29.33-40s-132,18.67-132,23.33S365.62,704,365.62,704s28.59,22.67,33.25,24,19.33,4.42,19.33,4.42Z"/><path class="cls-23" d="M456.87,711.34s-34,23.33-44.67-23.33C412.2,688,428.2,718,456.87,711.34Z"/></g><g class="cls-24"><path class="cls-21" d="M341,692.08s1.39,16.68-19.48,22.55-34.68-3-38-11.21-9.6-21.24-9.6-21.24-4-5.65,5.89-10.33,37-13.7,37-13.7,10.38-2.38,14.1,5.88S341,692.08,341,692.08Z"/><path class="cls-22" d="M301.72,717.59S278,683,292.55,676.47s42.83-11.26,42.83-11.26l-14.22-23.94s-74.77,3.28-75,5.88,24.68,56.16,24.68,56.16,14.74,14.21,17.28,15.21S298.65,722,298.65,722Z"/><path class="cls-23" d="M321.4,712.36s-20.26,11.19-23.69-15.46C297.71,696.9,305,714.53,321.4,712.36Z"/></g><g class="cls-25"><path class="cls-21" d="M264.72,766.67s1.1,16.65-17.82,22.71-31.32-2.66-34.26-10.85-8.48-21.13-8.48-21.13-3.53-5.61,5.42-10.38,33.62-14,33.62-14,9.41-2.47,12.69,5.74S264.72,766.67,264.72,766.67Z"/><path class="cls-22" d="M228.94,792.53s-21.11-34.38-7.91-41,38.82-11.65,38.82-11.65l-12.63-23.78s-67.61,4-67.87,6.58,21.78,55.88,21.78,55.88,13.2,14.06,15.48,15,9.52,3.41,9.52,3.41Z"/><path class="cls-23" d="M246.78,787.11s-18.42,11.37-21.27-15.22C225.51,771.89,232,789.44,246.78,787.11Z"/></g><g class="cls-26"><path class="cls-21" d="M220.79,856.54s1,14.43-15.45,19.68-27.14-2.31-29.69-9.4-7.35-18.31-7.35-18.31-3.06-4.86,4.7-9,29.14-12.17,29.14-12.17,8.15-2.14,11,5S220.79,856.54,220.79,856.54Z"/><path class="cls-22" d="M189.78,878.95s-18.3-29.8-6.85-35.53,33.64-10.1,33.64-10.1l-10.95-20.61s-58.6,3.44-58.82,5.7,18.88,48.43,18.88,48.43,11.44,12.19,13.41,13,8.25,3,8.25,3Z"/><path class="cls-23" d="M205.24,874.26s-16,9.86-18.44-13.19C186.8,861.06,192.39,876.27,205.24,874.26Z"/></g><g class="cls-27"><path class="cls-21" d="M158.32,991s-.59,14.87-12.76,20.15-19.18-2.59-20.37-9.92-3.63-18.91-3.63-18.91-1.76-5,4.14-9.23,21.87-12.3,21.87-12.3,6-2.14,7.41,5.21S158.32,991,158.32,991Z"/><path class="cls-22" d="M134.21,1013.88s-10.44-30.84-1.77-36.65,24.91-10.14,24.91-10.14l-6-21.32s-42.14,3.08-42.5,5.41,9.22,50,9.22,50,7.09,12.64,8.43,13.53,5.63,3.11,5.63,3.11Z"/><path class="cls-23" d="M145.66,1009.17s-12.26,10-12-13.73C133.66,995.44,136.31,1011.14,145.66,1009.17Z"/></g><g class="cls-28"><path class="cls-16" d="M1180.81,1499l31.5-84s82.5-271.49,91.5-322.48,15-144,69-219c0,0,40.5-69,39-115.49s75-174,150-163.49c0,0,100.49,30,67.5,99,0,0,12-37.5,48-39,0,0,66,22.5,45,67.5s-34.5,79.5-34.5,79.5,22.5-63.32,63-69.16c0,0,79.5,7.66,36,94.65,0,0,58.5,13.5,52.5,49.5s-15,82.5-15,82.5,42-22.5,45,25.5c0,0,9,52.5-40.5,136.49,0,0-4.5,61.5-54,183s-90,214.49-90,214.49h-97.5l-414-16.5Z"/><path class="cls-17" d="M1386.3,803.08s2.89-5.6,7.6-15c15.78-31.28,52.06-104.48,69.17-149.75l41.72-102.29,117,66,14.14,63.54s-36.94-82.48-114.31-45.54c0,0-36.32,61.5-27.32,85.5s84,46.17,97.5,26.84c0,0,13.5,3.16,3,27.16s-57,60-64.5,79.5-31.5,82.5-1.5,72,49.5-67.5,55.5-93c0,0-13.5,96,0,79.5s31.5-87,25.5-103.5c0,0,28.5-6,39-3,0,0-24-15-36-13.5,0,0-1-43.18,36-22.5,0,0,39.66-28.82,44.58-22.66s58.92-47.83,58.92-55.33v7.5s-103.5,142.49-117,213v60.24s68-85.74,68.51-114.24,8-67.5,48.49-34.5c0,0,69-24.32,64.5-76.66l-24.38,82.21s-89.09,124.94-88.6,165.44,51.49,24,48.49,0c0,0-3-64.49,42-84,0,0,54,60,39-75s36.64,30,36.64,30l-33.64,87s-118.49,133.49-48,184.49c0,0,16.5,1.25,7.5-27.87s2.57-101.67,34.5-75.62,69-20.83,69-20.83l31.5-265.82L1887.27,594l-60-65.38s-67.5-136.49-67.5-132-159,36-159,36l-247.49,79.5,26.63,132v97.58Z"/><path class="cls-18" d="M1155.31,1529s114-156,151.49-340.48,79.5-270,79.5-270,34.5-190.49,16.5-220.49l159-157.49,82.5,111,105-9-15,79.5s-63,55.5-93,130.49c0,0-10.5,22.5,132-145.49l90,72-65.51,18.78s-75.48,74.22-95,86.22c0,0-24,90-37.5,109.49,0,0,121.75-162.16,127.11-178.94l55.88,54.44-18,58.21s-78,67.79-85.5,120.29c0,0,8,24,102-105l87,92.25s-88.5,45.75-135,128.24-88.5,243-157.49,213c0,0,3-67.5-13.5-30s-132,172.49-132,172.49l298.49,10.5,75.64-126,158.35-298.49-22.5-337.48-187.49-207-351-84-183,204,10.5,211.49-94.5,330-60,127.49,22.5,142.62-9,43.37Z"/><path class="cls-17" d="M1390.8,1542.54s-58.5-238.49,96-304.49c0,0,14.14,288,34.82,304.49L1395.3,1535Z"/><path class="cls-17" d="M1635.29,1311.55s93.33-123.56,127.4-129.5a10.45,10.45,0,0,1,6.09.5C1795.78,1194.56,1659.29,1298.05,1635.29,1311.55Z"/><path class="cls-17" d="M1648.79,1151.06s18.82-99.7,73.5-111S1672.79,1073.06,1648.79,1151.06Z"/><path class="cls-17" d="M1404.3,956.07s31.45,12,46.48-27,61.52-151.49,61.52-151.49S1434.3,893.07,1404.3,956.07Z"/><path class="cls-19" d="M1645.73,640.67s-15,67-99,187c0,0-19.84,25.78-5,42s23-23,28-33,39-112,58-122c0,0,34-75,35-83s99,25,99,25l-43.22,80.83S1645.22,840.67,1649,866.67l11.75,26s58.18-154.23,89-167l74,6.75-27.12,86.32s-68.83,92.64-79.36,118.77c0,0,.48,57.16,17.48,16.16s38.21-124.47,77-141L1864.13,866l-38.23,84.57s-70.21,96-50.17,120.06c0,0,40.09-120.2,71-128.1l107-78.9-18-291-226,21.31-78,6.69Z"/></g><g class="cls-29"><path class="cls-21" d="M1505.07,672s-5.33,29.33,30.67,43.33,62,.67,69.33-13.33,20.67-36,20.67-36,8-9.33-8.67-19.33S1553.73,616,1553.73,616s-18-6-26,8S1505.07,672,1505.07,672Z"/><path class="cls-22" d="M1570.4,724s48-57.33,23.33-71.33-74-27.33-74-27.33l29.33-40s132,18.67,132,23.33S1627.65,704,1627.65,704s-28.59,22.67-33.25,24-19.33,4.42-19.33,4.42Z"/><path class="cls-23" d="M1536.4,711.34s34,23.33,44.67-23.33C1581.07,688,1565.06,718,1536.4,711.34Z"/></g><g class="cls-30"><path class="cls-21" d="M1652.23,692.08s-1.39,16.68,19.48,22.55,34.68-3,38-11.21,9.6-21.24,9.6-21.24,4-5.65-5.89-10.33-37-13.7-37-13.7-10.38-2.38-14.1,5.88S1652.23,692.08,1652.23,692.08Z"/><path class="cls-22" d="M1691.55,717.59s23.71-34.64,9.17-41.12-42.83-11.26-42.83-11.26l14.22-23.94s74.77,3.28,75,5.88-24.68,56.16-24.68,56.16-14.74,14.21-17.28,15.21-10.56,3.52-10.56,3.52Z"/><path class="cls-23" d="M1671.86,712.36s20.26,11.19,23.69-15.46C1695.56,696.9,1688.24,714.53,1671.86,712.36Z"/></g><g class="cls-31"><path class="cls-21" d="M1728.54,766.67s-1.1,16.65,17.82,22.71,31.32-2.66,34.26-10.85,8.48-21.13,8.48-21.13,3.53-5.61-5.42-10.38-33.62-14-33.62-14-9.41-2.47-12.69,5.74S1728.54,766.67,1728.54,766.67Z"/><path class="cls-22" d="M1764.33,792.53s21.11-34.38,7.91-41-38.82-11.65-38.82-11.65L1746,716.09s67.61,4,67.87,6.58-21.78,55.88-21.78,55.88-13.2,14.06-15.48,15-9.52,3.41-9.52,3.41Z"/><path class="cls-23" d="M1746.48,787.11s18.42,11.37,21.27-15.22C1767.76,771.89,1761.31,789.44,1746.48,787.11Z"/></g><g class="cls-32"><path class="cls-21" d="M1772.48,856.54s-1,14.43,15.45,19.68,27.14-2.31,29.69-9.4,7.35-18.31,7.35-18.31,3.06-4.86-4.7-9-29.14-12.17-29.14-12.17-8.15-2.14-11,5S1772.48,856.54,1772.48,856.54Z"/><path class="cls-22" d="M1803.49,878.95s18.3-29.8,6.85-35.53-33.64-10.1-33.64-10.1l10.95-20.61s58.6,3.44,58.82,5.7-18.88,48.43-18.88,48.43-11.44,12.19-13.41,13-8.25,3-8.25,3Z"/><path class="cls-23" d="M1788,874.26s16,9.86,18.44-13.19C1806.46,861.06,1800.88,876.27,1788,874.26Z"/></g><g class="cls-33"><path class="cls-21" d="M1834.95,991s.59,14.87,12.76,20.15,19.18-2.59,20.37-9.92,3.63-18.91,3.63-18.91,1.76-5-4.14-9.23-21.87-12.3-21.87-12.3-6-2.14-7.41,5.21S1834.95,991,1834.95,991Z"/><path class="cls-22" d="M1859.06,1013.88s10.44-30.84,1.77-36.65-24.91-10.14-24.91-10.14l6-21.32s42.14,3.08,42.5,5.41-9.22,50-9.22,50-7.09,12.64-8.43,13.53-5.63,3.11-5.63,3.11Z"/><path class="cls-23" d="M1847.61,1009.17s12.26,10,12-13.73C1859.61,995.44,1857,1011.14,1847.61,1009.17Z"/></g></g><rect class="cls-34" width="2000" height="1500"/></svg>